<?xml version="1.0" standalone="no"?><!DOCTYPE svg PUBLIC "-//W3C//DTD SVG 1.1//EN" "http://www.w3.org/Graphics/SVG/1.1/DTD/svg11.dtd"><svg xmlns:xlink="http://www.w3.org/1999/xlink" version="1.1" style="font-family:'lucida grande', 'lucida sans unicode', arial, helvetica, sans-serif;font-size:12px;" xmlns="http://www.w3.org/2000/svg" width="600" height="400"><desc>Created with Highcharts 4.2.7</desc><defs><clipPath id="highcharts-26"><rect x="0" y="0" width="600" height="400"></rect></clipPath></defs><rect x="10" y="10" width="580" height="316" fill="#ffffff"></rect><rect x="10" y="10" width="580" height="316" stroke="#f7f9fb" stroke-width="2" fill="none"></rect><g class="highcharts-series-group"><g class="highcharts-series highcharts-series-0" transform="translate(10,10) scale(1 1)"><path fill="rgb(55,155,25)" d="M 332.98876695417425 199.01219253965021 L 332.98876695417425 206.96714382799888 L 333 165.95495128834867 L 333 158 Z" transform="translate(0,0)" visibility="visible"></path><path fill="rgb(11,178,204)" d="M 298.90514974293734 124.82213700410713 L 298.90514974293734 132.7770882924558 L 333 165.95495128834867 L 333 158 Z" transform="translate(0,0)" visibility="visible"></path><path fill="rgb(11,178,204)" d="M 332.97685913830196 116.98780995545032 L 332.97685913830196 124.94276124379897 L 333 165.95495128834867 L 333 158 Z" transform="translate(0,0)" visibility="visible"></path><path fill="rgb(196,198,0)" d="M 277.8464948460333 170.69036778882648 L 277.8464948460333 178.64531907717515 L 333 165.95495128834867 L 333 158 Z" transform="translate(0,0)" visibility="visible"></path><path fill="rgb(11,178,204)" d="M 298.90514974293734 124.82213700410713 C 309.2651391102605 119.49897489768438 320.1705535349311 116.99142289280515 332.97685913830196 116.98780995545032 L 332.97685913830196 124.94276124379897 C 320.1705535349311 124.9463741811538 309.2651391102605 127.45392618603303 298.90514974293734 132.7770882924558 Z" transform="translate(0,0)" visibility="visible"></path><path fill="rgb(11,178,204)" d="M 333 158 C 333 158 333 158 333 158 L 333 165.95495128834867 C 333 165.95495128834867 333 165.95495128834867 333 165.95495128834867 Z" transform="translate(0,0)" visibility="visible"></path><path fill="rgb(196,198,0)" d="M 298.9046805388039 124.82237809276421 L 298.9046805388039 132.77732938111288 L 333 165.95495128834867 L 333 158 Z" transform="translate(0,0)" visibility="visible"></path><path fill="rgb(212,61,2)" d="M 332.98818695418566 199.01219245816998 L 332.98818695418566 206.96714374651864 L 333 165.95495128834867 L 333 158 Z" transform="translate(0,0)" visibility="visible"></path><path fill="rgb(196,198,0)" d="M 277.8464948460333 170.69036778882648 C 275.86140139015174 166.3766684551292 275 162.53633111179423 275 158 L 275 165.95495128834867 C 275 152.36586599531674 283.3580069554456 140.76567773027435 298.9046805388039 132.77732938111288 L 298.9046805388039 124.82237809276421 C 283.3580069554456 132.81072644192568 275 144.41091470696807 275 158 L 275 165.95495128834867 C 275 170.4912824001429 275.86140139015174 174.33161974347786 277.8464948460333 178.64531907717515 Z" transform="translate(0,0)" visibility="visible"></path><path fill="rgb(196,198,0)" d="M 333 158 C 333 158 333 158 333 158 L 333 165.95495128834867 C 333 165.95495128834867 333 165.95495128834867 333 165.95495128834867 Z" transform="translate(0,0)" visibility="visible"></path><path fill="rgb(212,61,2)" d="M 277.8466743176934 170.69075778236697 L 277.8466743176934 178.64570907071564 L 333 165.95495128834867 L 333 158 Z" transform="translate(0,0)" visibility="visible"></path><path fill="rgb(55,155,25)" d="M 332.98818695418566 116.98780754183002 L 332.98818695418566 124.94275883017868 L 333 165.95495128834867 L 333 158 Z" transform="translate(0,0)" visibility="visible"></path><path fill="rgb(212,61,2)" d="M 332.98818695418566 199.01219245816998 C 307.3753703147858 199.0085037334486 285.7722699177416 187.91285605466518 277.8466743176934 170.69075778236697 L 277.8466743176934 178.64570907071564 C 285.7722699177416 195.86780734301385 307.3753703147858 206.96345502179727 332.98818695418566 206.96714374651864 Z" transform="translate(0,0)" visibility="visible"></path><path fill="rgb(212,61,2)" d="M 333 158 C 333 158 333 158 333 158 L 333 165.95495128834867 C 333 165.95495128834867 333 165.95495128834867 333 165.95495128834867 Z" transform="translate(0,0)" visibility="visible"></path><path fill="rgb(55,155,25)" d="M 391 158 C 391 180.65040892157367 365.03251549018603 199.01219330881975 333 199.01219330881975 C 332.996050512828 199.01219330881975 332.9927164412722 199.01219308052313 332.98876695417425 199.01219253965021 L 332.98876695417425 206.96714382799888 C 365.0212818436015 206.9715306052642 390.9937950723263 188.6133027479985 390.99999891223 165.96289425122544 C 390.99999967713984 165.9601015421163 391 165.9577439975102 391 165.95495128834867 Z" transform="translate(0,0)" visibility="visible"></path><path fill="rgb(55,155,25)" d="M 333 158 C 333 158 333 158 333 158 C 333 158 333 158 333 158 C 333 158 333 158 333 158 L 333 165.95495128834867 C 333 165.95495128834867 333 165.95495128834867 333 165.95495128834867 C 333 165.95495128834867 333 165.95495128834867 333 165.95495128834867 C 333 165.95495128834867 333 165.95495128834867 333 165.95495128834867 Z" transform="translate(0,0)" visibility="visible"></path><g stroke="#FFFFFF" stroke-width="1" stroke-linejoin="round"><path fill="#50B432" d="M 332.98818695418566 116.98780754183002 C 365.0207017799729 116.98319426047996 390.9934746319472 135.34123846342547 390.99999879699953 157.99164691519823 C 391.00652296205186 180.642055366971 365.0443278716016 199.00757917681992 333.01181304581434 199.01219245816998 C 333.0037101463112 199.01219362513908 332.9968698536935 199.01219364932317 332.98876695417425 199.01219253965021 L 333 158 C 333 158 333 158 333 158 C 333 158 333 158 333 158 C 333 158 333 158 333 158 Z" transform="translate(0,0)" visibility="visible"></path></g><g stroke="#FFFFFF" stroke-width="1" stroke-linejoin="round"><path fill="#ED561B" d="M 332.98818695418566 199.01219245816998 C 307.3753703147858 199.0085037334486 285.7722699177416 187.91285605466518 277.8466743176934 170.69075778236697 L 333 158 C 333 158 333 158 333 158 Z" transform="translate(0,0)" visibility="visible"></path></g><g stroke="#FFFFFF" stroke-width="1" stroke-linejoin="round"><path fill="#DDDF00" d="M 277.8464948460333 170.69036778882648 C 269.91483275972735 153.4545014594925 278.1681904563718 135.47741020810477 298.9046805388039 124.82237809276421 L 333 158 C 333 158 333 158 333 158 Z" transform="translate(0,0)" visibility="visible"></path></g><g stroke="#FFFFFF" stroke-width="1" stroke-linejoin="round"><path fill="#24CBE5" d="M 298.90514974293734 124.82213700410713 C 309.2651391102605 119.49897489768438 320.1705535349311 116.99142289280515 332.97685913830196 116.98780995545032 L 333 158 C 333 158 333 158 333 158 Z" transform="translate(0,0)" visibility="visible"></path></g></g><g class="highcharts-markers highcharts-series-0" transform="translate(10,10) scale(1 1)"></g></g><g class="highcharts-data-labels highcharts-series-0" transform="translate(10,10) scale(1 1)" opacity="1"><path fill="none" d="M 426 158 C 421 158 413 158 402 158 L 391 158" stroke="#50B432" stroke-width="1"></path><path fill="none" d="M 261.33950882352343 215.44892441213227 C 266.33950882352343 215.44892441213227 285.9771798166022 208.97678845713267 292.4428175918194 200.07760151900825 L 298.9084553670366 191.17841458088384" stroke="#ED561B" stroke-width="1"></path><path fill="none" d="M 242.78096850228155 136.05195519890512 C 247.78096850228155 136.05195519890512 256.91547869638765 138.5240911539047 267.37710037563437 141.9232780920291 L 277.8387220548811 145.32246503015352" stroke="#DDDF00" stroke-width="1"></path><path fill="none" d="M 271.5850775317408 90.46218449712559 C 276.5850775317408 90.46218449712559 308.2786404500041 98.0706366274868 311.67782738812855 108.5322583067335 L 315.077014326253 118.99387998598019" stroke="#24CBE5" stroke-width="1"></path><g style="cursor:pointer;" transform="translate(431,148)"><text x="5" style="font-size:10px;font-weight:bold;font-family:'arial', sans-serif;color:#000;text-shadow:none;fill:#000;text-rendering:geometricprecision;" y="15"><tspan>Presale &amp; Burn: 50000000000</tspan></text></g><g style="cursor:pointer;" transform="translate(137,205)"><text x="5" style="font-size:10px;font-weight:bold;font-family:'arial', sans-serif;color:#000;text-shadow:none;fill:#000;text-rendering:geometricprecision;" y="15"><tspan>Liquidity: 20000000000</tspan></text></g><g style="cursor:pointer;" transform="translate(121,126)"><text x="5" style="font-size:10px;font-weight:bold;font-family:'arial', sans-serif;color:#000;text-shadow:none;fill:#000;text-rendering:geometricprecision;" y="15"><tspan>Farming: 20000000000</tspan></text></g><g style="cursor:pointer;" transform="translate(0,80)"><text x="5" style="font-size:10px;font-weight:bold;font-family:'arial', sans-serif;color:#000;text-shadow:none;fill:#000;text-rendering:geometricprecision;" y="15"><tspan>Development, Promotion and Marketing: 10000000000</tspan></text></g></g><g class="highcharts-legend" transform="translate(149,338)"><g><g><g class="highcharts-legend-item" transform="translate(8,3)"><text x="21" style="color:#333;font-size:9pt;font-weight:normal;cursor:pointer;font-family:'lucida grande','lucida sans unicode',arial,helvetica,sans-serif;text-transform:none;fill:#333;" text-anchor="start" y="15"><tspan>Presale &amp; Burn</tspan></text><rect x="0" y="4" width="16" height="12" fill="#50B432"></rect></g><g class="highcharts-legend-item" transform="translate(132.796875,3)"><text x="21" y="15" style="color:#333;font-size:9pt;font-weight:normal;cursor:pointer;font-family:'lucida grande','lucida sans unicode',arial,helvetica,sans-serif;text-transform:none;fill:#333;" text-anchor="start">Liquidity</text><rect x="0" y="4" width="16" height="12" fill="#ED561B"></rect></g><g class="highcharts-legend-item" transform="translate(224.65625,3)"><text x="21" y="15" style="color:#333;font-size:9pt;font-weight:normal;cursor:pointer;font-family:'lucida grande','lucida sans unicode',arial,helvetica,sans-serif;text-transform:none;fill:#333;" text-anchor="start">Farming</text><rect x="0" y="4" width="16" height="12" fill="#DDDF00"></rect></g><g class="highcharts-legend-item" transform="translate(8,21)"><text x="21" y="15" style="color:#333;font-size:9pt;font-weight:normal;cursor:pointer;font-family:'lucida grande','lucida sans unicode',arial,helvetica,sans-serif;text-transform:none;fill:#333;" text-anchor="start"><tspan>Development, Promotion and Marketing</tspan></text><rect x="0" y="4" width="16" height="12" fill="#24CBE5"></rect></g></g></g></g><g class="highcharts-tooltip" display="none" style="cursor:default;padding:0;pointer-events:none;white-space:nowrap;" transform="translate(0,0)"><path fill="none" d="M 3.5 0.5 L 13.5 0.5 C 16.5 0.5 16.5 0.5 16.5 3.5 L 16.5 13.5 C 16.5 16.5 16.5 16.5 13.5 16.5 L 3.5 16.5 C 0.5 16.5 0.5 16.5 0.5 13.5 L 0.5 3.5 C 0.5 0.5 0.5 0.5 3.5 0.5"  stroke="black" stroke-opacity="0.049999999999999996" stroke-width="5" transform="translate(1, 1)"></path><path fill="none" d="M 3.5 0.5 L 13.5 0.5 C 16.5 0.5 16.5 0.5 16.5 3.5 L 16.5 13.5 C 16.5 16.5 16.5 16.5 13.5 16.5 L 3.5 16.5 C 0.5 16.5 0.5 16.5 0.5 13.5 L 0.5 3.5 C 0.5 0.5 0.5 0.5 3.5 0.5"  stroke="black" stroke-opacity="0.09999999999999999" stroke-width="3" transform="translate(1, 1)"></path><path fill="none" d="M 3.5 0.5 L 13.5 0.5 C 16.5 0.5 16.5 0.5 16.5 3.5 L 16.5 13.5 C 16.5 16.5 16.5 16.5 13.5 16.5 L 3.5 16.5 C 0.5 16.5 0.5 16.5 0.5 13.5 L 0.5 3.5 C 0.5 0.5 0.5 0.5 3.5 0.5"  stroke="black" stroke-opacity="0.15" stroke-width="1" transform="translate(1, 1)"></path><path fill="rgb(249, 249, 249)" fill-opacity=" .85" d="M 3.5 0.5 L 13.5 0.5 C 16.5 0.5 16.5 0.5 16.5 3.5 L 16.5 13.5 C 16.5 16.5 16.5 16.5 13.5 16.5 L 3.5 16.5 C 0.5 16.5 0.5 16.5 0.5 13.5 L 0.5 3.5 C 0.5 0.5 0.5 0.5 3.5 0.5"></path><text x="8" style="font-size:12px;color:#000000;fill:#000000;" y="20"></text></g><text x="590" text-anchor="end" style="cursor:pointer;color:#909090;font-size:9px;fill:#909090;" y="395">meta-chart.com</text></svg>